<?xml version="1.0" encoding="UTF-8"?>
<svg xmlns="http://www.w3.org/2000/svg" width="8" height="8" viewBox="0 0 8 8" fill="none" style="transition: none !important; animation-duration: 0s !important; animation-delay: -0.0001s; animation-play-state: paused; fill: none; height: 8px; transition-property: none; visibility: visible; width: 8px"><path fill-rule="evenodd" clip-rule="evenodd" d="M2.65901 3.71967L0.21967 1.28033C-0.0732233 0.987437 -0.0732233 0.512563 0.21967 0.21967C0.512563 -0.0732233 0.987437 -0.0732233 1.28033 0.21967L3.71967 2.65901L6.15901 0.21967C6.4519 -0.0732233 6.92678 -0.0732233 7.21967 0.21967C7.51256 0.512563 7.51256 0.987437 7.21967 1.28033L4.78033 3.71967L7.21967 6.15901C7.51256 6.4519 7.51256 6.92678 7.21967 7.21967C6.92678 7.51256 6.4519 7.51256 6.15901 7.21967L3.71967 4.78033L1.28033 7.21967C0.987437 7.51256 0.512563 7.51256 0.21967 7.21967C-0.0732233 6.92678 -0.0732233 6.4519 0.21967 6.15901L2.65901 3.71967Z" fill="#000624" style="transition: none !important; animation-duration: 0s !important; animation-delay: -0.0001s; animation-play-state: paused; fill: rgb(0, 6, 36); fill-rule: evenodd; transform-origin: 0px 0px; transition-property: none; visibility: visible"></path></svg>