<?xml version="1.0" encoding="UTF-8"?>
<svg width="58" height="18" viewBox="0 0 58 18" fill="none" xmlns="http://www.w3.org/2000/svg" style="transition: none !important; animation-duration: 0s !important; animation-delay: -0.0001s; animation-play-state: paused; fill: none; height: 18px; transition-property: none; visibility: visible; width: 58px"><g clip-path="url(#clip0_9809_68503)" style="transition: none !important; animation-duration: 0s !important; animation-delay: -0.0001s; animation-play-state: paused; clip-path: url(&quot;#clip0_9809_68503&quot;); fill: none; transform-origin: 0px 0px; transition-property: none; visibility: visible"><path d="M25.9145 4H24.4877C24.092 4 23.722 4.19599 23.4997 4.52375L21.5917 7.33848C21.5409 7.41312 21.4308 7.41312 21.3799 7.33848L19.4719 4.52375C19.25 4.19599 18.8796 4 18.4839 4H17.0571L20.4561 9.01397L17.0759 14H18.5026C18.8984 14 19.2683 13.804 19.4906 13.4763L21.3799 10.6895C21.4308 10.6148 21.5409 10.6148 21.5917 10.6895L23.481 13.4763C23.7029 13.804 24.0732 14 24.469 14H25.8957L22.5155 9.01397L25.9145 4Z" fill="#000000" style="transition: none !important; animation-duration: 0s !important; animation-delay: -0.0001s; animation-play-state: paused; transform-origin: 0px 0px; transition-property: none; visibility: visible"></path><path d="M14.1216 5.02289V14H14.8035C15.3686 14 15.8265 13.5421 15.8265 12.9771V4H15.1446C14.5795 4 14.1216 4.45786 14.1216 5.02289Z" fill="#000000" style="transition: none !important; animation-duration: 0s !important; animation-delay: -0.0001s; animation-play-state: paused; transform-origin: 0px 0px; transition-property: none; visibility: visible"></path><path d="M12.871 4H12.2642C11.5961 4 11.0172 4.46203 10.8692 5.11338L9.51166 11.081L8.32348 5.51036C8.10369 4.4808 7.0473 3.7865 5.9663 4.08507C5.27775 4.27522 4.76728 4.85693 4.61839 5.5554L3.4423 11.0735L2.0873 5.1138C1.93883 4.46245 1.35996 4 0.691843 4H0.0854492L2.35963 13.9996H3.22126C4.00324 13.9996 4.67886 13.4529 4.84193 12.6881L6.29577 5.86564C6.31371 5.78099 6.38961 5.71969 6.47594 5.71969C6.56227 5.71969 6.63817 5.78099 6.65611 5.86564L8.1112 12.6885C8.27427 13.4533 8.94989 13.9996 9.73187 13.9996H10.5964L12.871 4Z" fill="#000000" style="transition: none !important; animation-duration: 0s !important; animation-delay: -0.0001s; animation-play-state: paused; transform-origin: 0px 0px; transition-property: none; visibility: visible"></path></g><path d="M32.7106 14H31.2966L27.3906 3.99H28.8466L32.2626 13.118H31.7866L35.2166 3.99H36.6166L32.7106 14ZM39.3124 14H38.0104V7.056H39.3124V14ZM38.6684 5.418C38.4258 5.418 38.2158 5.33867 38.0384 5.18C37.8704 5.012 37.7864 4.80667 37.7864 4.564C37.7864 4.32133 37.8704 4.116 38.0384 3.948C38.2158 3.78 38.4258 3.696 38.6684 3.696C38.9111 3.696 39.1164 3.78 39.2844 3.948C39.4524 4.116 39.5364 4.32133 39.5364 4.564C39.5364 4.80667 39.4524 5.012 39.2844 5.18C39.1164 5.33867 38.9111 5.418 38.6684 5.418ZM42.443 14H41.155V3.92H42.457V9.184H42.135C42.2096 8.72667 42.3823 8.32067 42.653 7.966C42.933 7.61133 43.2783 7.336 43.689 7.14C44.109 6.93467 44.571 6.832 45.075 6.832C45.747 6.832 46.3443 6.99533 46.867 7.322C47.3896 7.63933 47.8003 8.078 48.099 8.638C48.3976 9.18867 48.547 9.81867 48.547 10.528C48.547 11.2467 48.393 11.886 48.085 12.446C47.7863 12.9967 47.3663 13.4307 46.825 13.748C46.293 14.0653 45.6863 14.224 45.005 14.224C44.3796 14.224 43.8383 14.098 43.381 13.846C42.9236 13.5847 42.5783 13.2347 42.345 12.796C42.1116 12.348 42.0183 11.8487 42.065 11.298L42.331 11.032C42.3683 11.4333 42.499 11.7927 42.723 12.11C42.9563 12.4273 43.2503 12.6747 43.605 12.852C43.969 13.02 44.361 13.104 44.781 13.104C45.2663 13.104 45.6863 12.9967 46.041 12.782C46.3956 12.558 46.6756 12.25 46.881 11.858C47.0863 11.466 47.189 11.0227 47.189 10.528C47.189 10.0333 47.091 9.59467 46.895 9.212C46.7083 8.82 46.4376 8.512 46.083 8.288C45.7376 8.064 45.3316 7.952 44.865 7.952C44.3983 7.952 43.983 8.06867 43.619 8.302C43.2643 8.526 42.9796 8.84333 42.765 9.254C42.5596 9.66467 42.457 10.1407 42.457 10.682V12.152L42.443 12.194V14ZM56.0044 11.956L56.8164 12.796C56.4524 13.244 56.0044 13.594 55.4724 13.846C54.9497 14.098 54.357 14.224 53.6944 14.224C52.9384 14.224 52.2664 14.0653 51.6784 13.748C51.0904 13.4307 50.6284 12.9967 50.2924 12.446C49.9657 11.886 49.8024 11.2467 49.8024 10.528C49.8024 9.80933 49.961 9.17467 50.2784 8.624C50.5957 8.064 51.0344 7.62533 51.5944 7.308C52.1544 6.99067 52.7844 6.832 53.4844 6.832C54.1657 6.832 54.7677 6.99067 55.2904 7.308C55.8224 7.616 56.2377 8.04533 56.5364 8.596C56.8444 9.13733 56.9984 9.76733 56.9984 10.486V10.57H55.6824V10.444C55.6824 9.94 55.589 9.50133 55.4024 9.128C55.2157 8.74533 54.9544 8.45133 54.6184 8.246C54.2917 8.03133 53.9137 7.924 53.4844 7.924C53.027 7.924 52.621 8.03133 52.2664 8.246C51.9117 8.46067 51.6364 8.764 51.4404 9.156C51.2444 9.53867 51.1464 9.99133 51.1464 10.514C51.1464 11.0367 51.2537 11.4987 51.4684 11.9C51.6924 12.292 52.0004 12.5953 52.3924 12.81C52.7844 13.0247 53.2324 13.132 53.7364 13.132C54.6604 13.132 55.4164 12.74 56.0044 11.956ZM56.9984 10.962H50.7684V9.996H56.7744L56.9984 10.486V10.962Z" fill="#000000" style="transition: none !important; animation-duration: 0s !important; animation-delay: -0.0001s; animation-play-state: paused; transform-origin: 0px 0px; transition-property: none; visibility: visible"></path><defs style="transition: none !important; animation-duration: 0s !important; visibility: visible"><clipPath id="clip0_9809_68503" style="transition: none !important; animation-duration: 0s !important; animation-delay: -0.0001s; animation-play-state: paused; fill: none; transform-origin: 0px 0px; transition-property: none; visibility: visible"><rect width="25.8289" height="10" fill="white" transform="translate(0.0854492 4)" style="transition: none !important; animation-duration: 0s !important; animation-delay: -0.0001s; animation-play-state: paused; fill: rgb(255, 255, 255); transform-origin: 0px 0px; transition-property: none; visibility: visible" /></clipPath></defs></svg>